<svg width="72" height="23" viewBox="0 0 72 23" fill="none" xmlns="http://www.w3.org/2000/svg">
<path d="M0 8.58854C0 4.53987 0 2.51553 1.26487 1.25776C2.52974 0 4.56551 0 8.63706 0H63.3629C67.4345 0 69.4703 0 70.7351 1.25776C72 2.51553 72 4.53987 72 8.58854V13.9421C72 17.9907 72 20.0151 70.7351 21.2729C69.4703 22.5306 67.4345 22.5306 63.3629 22.5306H8.63706C4.56551 22.5306 2.52974 22.5306 1.26487 21.2729C0 20.0151 0 17.9907 0 13.9421V8.58854Z" fill="#EBF3EB"/>
<path d="M4.26316 2.77452H6.66478L11.2705 8.99298L11.4368 9.58417H11.6032L11.7591 8.99298L16.3856 2.77452H18.7769V10.4381H17.2486V3.62847H17.0926L16.8327 4.5262L12.4037 10.4381H10.6467L6.20733 4.5262L5.95781 3.62847H5.79146V10.4381H4.26316V2.77452Z" fill="#282E33"/>
<path fill-rule="evenodd" clip-rule="evenodd" d="M23.6634 10.7666C23.0119 10.7666 22.4713 10.7045 22.0416 10.5804C21.6188 10.4637 21.2965 10.2885 21.0747 10.0549C20.9499 9.92356 20.8598 9.78124 20.8044 9.62797C20.7489 9.46739 20.7212 9.29223 20.7212 9.10246C20.7212 8.9054 20.7489 8.72658 20.8044 8.56601C20.8667 8.39814 20.9569 8.25217 21.0747 8.12809C21.2618 7.93833 21.5183 7.7887 21.844 7.67922C22.1698 7.56974 22.5649 7.50771 23.0292 7.49311L27.7701 7.33335V7.14277C27.7701 7.10628 27.7666 7.07343 27.7597 7.04424C27.7251 6.76689 27.6038 6.54063 27.3958 6.36546C27.1948 6.1903 26.8933 6.06257 26.4913 5.98228C26.0963 5.8947 25.5938 5.85091 24.9838 5.85091C24.159 5.85091 23.5387 5.92389 23.1228 6.06987C22.707 6.21584 22.4366 6.37276 22.3119 6.54063C22.1941 6.7012 22.1247 6.86542 22.1039 7.03329H20.6172C20.638 6.73405 20.7385 6.43115 20.9187 6.12461C21.0989 5.81077 21.5079 5.51882 22.1455 5.24877C22.7901 4.97142 23.7466 4.83275 25.015 4.83275C25.9923 4.83275 26.7928 4.93128 27.4166 5.12834C28.0474 5.32541 28.5117 5.6137 28.8098 5.99323C29.1078 6.36546 29.2568 6.81798 29.2568 7.35078V10.4381H27.8117L28.1132 8.77402H27.9469C27.8498 9.19005 27.6038 9.54768 27.2087 9.84693C26.8206 10.1462 26.3181 10.3724 25.7012 10.5257C25.0843 10.6863 24.4051 10.7666 23.6634 10.7666ZM27.3958 8.86161C27.6019 8.63861 27.7228 8.41562 27.7588 8.19263L23.2788 8.39084C23.0639 8.40544 22.8837 8.43464 22.7381 8.47843C22.5926 8.51492 22.4782 8.57696 22.3951 8.66454C22.3673 8.69374 22.3431 8.73023 22.3223 8.77402C22.3015 8.81052 22.2842 8.85431 22.2703 8.9054C22.2634 8.94919 22.2599 8.99298 22.2599 9.03677C22.2599 9.11706 22.2703 9.1937 22.2911 9.26668C22.3188 9.33237 22.3604 9.39441 22.4158 9.4528C22.5198 9.56228 22.7035 9.64986 22.9669 9.71555C23.2372 9.77394 23.5907 9.80313 24.0273 9.80313C24.9076 9.80313 25.6284 9.7119 26.1898 9.52943C26.7512 9.34697 27.1532 9.12436 27.3958 8.86161Z" fill="#282E33"/>
<path d="M32.7793 2.77452H31.2926V10.4381H32.7793V2.77452Z" fill="#282E33"/>
<path d="M34.981 2.77452H36.4677V10.4381H34.981V2.77452Z" fill="#282E33"/>
<path fill-rule="evenodd" clip-rule="evenodd" d="M39.5843 10.5804C40.014 10.7045 40.5546 10.7666 41.2061 10.7666C41.9478 10.7666 42.627 10.6863 43.2439 10.5257C43.8607 10.3724 44.3633 10.1462 44.7514 9.84693C45.1465 9.54768 45.3925 9.19005 45.4896 8.77402H45.6559L45.3544 10.4381H46.7995V7.35078C46.7995 6.81798 46.6505 6.36546 46.3525 5.99323C46.0544 5.6137 45.5901 5.32541 44.9593 5.12834C44.3355 4.93128 43.535 4.83275 42.5577 4.83275C41.2893 4.83275 40.3328 4.97142 39.6882 5.24877C39.0506 5.51882 38.6416 5.81077 38.4614 6.12461C38.2812 6.43115 38.1807 6.73405 38.1599 7.03329H39.6466C39.6674 6.86542 39.7367 6.7012 39.8546 6.54063C39.9793 6.37276 40.2496 6.21584 40.6655 6.06987C41.0814 5.92389 41.7017 5.85091 42.5265 5.85091C43.1365 5.85091 43.639 5.8947 44.034 5.98228C44.436 6.06257 44.7375 6.1903 44.9385 6.36546C45.1465 6.54063 45.2678 6.76689 45.3024 7.04424C45.3093 7.07343 45.3128 7.10628 45.3128 7.14277V7.33335L40.5719 7.49311C40.1076 7.50771 39.7125 7.56974 39.3867 7.67922C39.061 7.7887 38.8045 7.93833 38.6174 8.12809C38.4995 8.25217 38.4094 8.39814 38.3471 8.56601C38.2916 8.72658 38.2639 8.9054 38.2639 9.10246C38.2639 9.29223 38.2916 9.46739 38.3471 9.62797C38.4025 9.78124 38.4926 9.92356 38.6174 10.0549C38.8392 10.2885 39.1615 10.4637 39.5843 10.5804ZM45.3014 8.19263C45.2655 8.41562 45.1446 8.63861 44.9385 8.86161C44.6959 9.12436 44.2939 9.34697 43.7325 9.52943C43.1711 9.7119 42.4503 9.80313 41.57 9.80313C41.1334 9.80313 40.7799 9.77394 40.5096 9.71555C40.2462 9.64986 40.0625 9.56228 39.9585 9.4528C39.9031 9.39441 39.8615 9.33237 39.8338 9.26668C39.813 9.1937 39.8026 9.11706 39.8026 9.03677C39.8026 8.99298 39.8061 8.94919 39.813 8.9054C39.8269 8.85431 39.8442 8.81052 39.865 8.77402C39.8858 8.73023 39.91 8.69374 39.9378 8.66454C40.0209 8.57696 40.1353 8.51492 40.2808 8.47843C40.4264 8.43464 40.6066 8.40544 40.8215 8.39084L45.3014 8.19263Z" fill="#282E33"/>
<path d="M48.8353 5.16119H50.3116L50.0101 7.16467H50.1765C50.3913 6.59537 50.6478 6.14286 50.9458 5.80712C51.2508 5.46408 51.6182 5.21593 52.0479 5.06265C52.4776 4.90938 53.0044 4.83275 53.6282 4.83275C54.349 4.83275 54.9485 4.93858 55.4268 5.15024C55.905 5.3619 56.2585 5.67209 56.4872 6.08082C56.7229 6.48224 56.8407 6.9822 56.8407 7.58069V7.84344H55.354V7.65733C55.354 7.08803 55.1703 6.65741 54.803 6.36546C54.4426 6.07352 53.8361 5.92755 52.9836 5.92755C52.4152 5.92755 51.9301 6.02243 51.528 6.21219C51.133 6.40196 50.8315 6.66836 50.6235 7.0114C50.4225 7.35443 50.322 7.76316 50.322 8.23757V10.4381H48.8353V5.16119Z" fill="#282E33"/>
<path fill-rule="evenodd" clip-rule="evenodd" d="M59.6733 10.3505C60.3872 10.6279 61.2605 10.7666 62.2933 10.7666C63.0141 10.7666 63.6414 10.7009 64.1751 10.5695C64.7157 10.4381 65.1697 10.2338 65.537 9.9564C65.9113 9.67906 66.2024 9.31777 66.4103 8.87255H66.5663L66.3168 10.4381H67.8035V2.77452H66.3168V5.16119L66.5663 6.72675H66.4103C66.2024 6.28153 65.9113 5.92025 65.537 5.6429C65.1697 5.36555 64.7157 5.16119 64.1751 5.02981C63.6414 4.89843 63.0141 4.83275 62.2933 4.83275C61.2605 4.83275 60.3872 4.97507 59.6733 5.25972C58.9594 5.53707 58.4361 5.9239 58.1034 6.4202C58.0133 6.55888 57.9371 6.7012 57.8747 6.84718C57.8193 6.99315 57.7742 7.14642 57.7396 7.30699C57.7118 7.46756 57.698 7.63178 57.698 7.79965C57.698 7.96752 57.7118 8.13174 57.7396 8.29231C57.7742 8.45288 57.8193 8.60615 57.8747 8.75213C57.9371 8.8981 58.0133 9.03677 58.1034 9.16815C58.4361 9.67176 58.9594 10.0659 59.6733 10.3505ZM64.9132 9.44185C64.3518 9.63161 63.6448 9.7265 62.7923 9.7265C61.9329 9.7265 61.2224 9.63161 60.661 9.44185C60.1065 9.24479 59.7114 8.96744 59.4758 8.6098C59.3926 8.49302 59.3337 8.36895 59.299 8.23757C59.2644 8.0989 59.2471 7.95292 59.2471 7.79965C59.2471 7.69747 59.254 7.60259 59.2679 7.515C59.2886 7.42012 59.3129 7.32889 59.3406 7.2413C59.3753 7.14642 59.4203 7.05884 59.4758 6.97855C59.7114 6.62092 60.1065 6.34722 60.661 6.15745C61.2224 5.96769 61.9329 5.8728 62.7923 5.8728C63.6448 5.8728 64.3518 5.96769 64.9132 6.15745C65.4747 6.34722 65.8697 6.62092 66.0984 6.97855C66.1816 7.10263 66.2405 7.23401 66.2752 7.37268C66.3168 7.50406 66.3376 7.64638 66.3376 7.79965C66.3376 7.90183 66.3272 8.00036 66.3064 8.09525C66.2925 8.18283 66.2683 8.27406 66.2336 8.36895C66.199 8.45653 66.1539 8.53682 66.0984 8.6098C65.8697 8.96744 65.4747 9.24479 64.9132 9.44185Z" fill="#282E33"/>
<path d="M21.3679 19.7942C20.2789 19.7942 19.2929 19.6899 18.4098 19.4812C17.5333 19.2726 16.7963 18.9561 16.1987 18.5318C15.6077 18.1075 15.1994 17.5719 14.9736 16.925C14.9138 16.7581 14.8674 16.5807 14.8342 16.3929C14.8076 16.1982 14.7943 15.9999 14.7943 15.7982C14.7943 15.6591 14.801 15.527 14.8142 15.4018C14.8275 15.2696 14.8474 15.1409 14.874 15.0157C14.9006 14.8905 14.9338 14.7757 14.9736 14.6714C15.1994 14.0245 15.6077 13.4889 16.1987 13.0647C16.7963 12.6404 17.5366 12.3239 18.4197 12.1152C19.3029 11.9065 20.2955 11.8022 21.3978 11.8022C22.5199 11.8022 23.5126 11.9274 24.3758 12.1778C25.2456 12.4282 25.9329 12.7795 26.4375 13.2316C26.9421 13.6768 27.2409 14.188 27.3339 14.7653H25.82C25.6606 14.3827 25.3884 14.0524 25.0033 13.7741C24.6248 13.4889 24.1301 13.2698 23.5192 13.1168C22.915 12.9638 22.2078 12.8873 21.3978 12.8873C20.5479 12.8873 19.7809 12.9638 19.097 13.1168C18.4197 13.2629 17.8487 13.4924 17.3839 13.8054C16.9258 14.1184 16.617 14.5149 16.4576 14.9948C16.4112 15.1131 16.378 15.2418 16.358 15.3809C16.3381 15.52 16.3282 15.6591 16.3282 15.7982C16.3282 15.9373 16.3381 16.0764 16.358 16.2156C16.378 16.3547 16.4112 16.4834 16.4576 16.6016C16.6236 17.0815 16.9357 17.478 17.3939 17.791C17.852 18.104 18.4197 18.337 19.097 18.4901C19.7743 18.6361 20.5313 18.7092 21.3679 18.7092C22.158 18.7092 22.842 18.6361 23.4196 18.4901C23.9973 18.337 24.4721 18.1214 24.8439 17.8432C25.2224 17.565 25.5079 17.2276 25.7005 16.8311H27.2243C27.0783 17.4293 26.7529 17.951 26.2483 18.3962C25.7436 18.8344 25.0796 19.1787 24.2563 19.4291C23.4329 19.6725 22.4701 19.7942 21.3679 19.7942Z" fill="#282E33"/>
<path fill-rule="evenodd" clip-rule="evenodd" d="M8.58578 19.7629C7.62962 19.7629 6.8295 19.676 6.18543 19.5021C5.54135 19.3352 5.05995 19.0987 4.74124 18.7926C4.42252 18.4796 4.26316 18.1075 4.26316 17.6762V17.6658C4.26316 17.2276 4.45904 16.845 4.85079 16.5181C5.24255 16.1843 5.83683 15.9617 6.63363 15.8504V15.6969C6.24637 15.4411 5.94093 15.221 5.71731 15.0366C5.40523 14.7792 5.18611 14.5497 5.05995 14.348C4.94043 14.1463 4.88067 13.9237 4.88067 13.6802V13.6698C4.88067 13.2942 5.01015 12.9708 5.26911 12.6995C5.52807 12.4282 5.91983 12.2161 6.44439 12.063C6.96894 11.91 7.6263 11.8335 8.41646 11.8335C9.19997 11.8335 9.85401 11.91 10.3786 12.063C10.9098 12.2091 11.3015 12.4213 11.5538 12.6995C11.8128 12.9708 11.9423 13.2942 11.9423 13.6698V13.6802C11.9423 13.9585 11.8394 14.2297 11.6335 14.494C11.4277 14.7584 11.099 15.0018 10.6475 15.2244C10.2026 15.44 9.62825 15.6174 8.92441 15.7565V15.9218L11.6552 17.7065C11.7527 17.5965 11.8417 17.4786 11.9224 17.3528C12.2344 16.8659 12.3905 16.2712 12.3905 15.5687V15.4122H13.7948V15.5687C13.7948 16.4451 13.5691 17.1998 13.1175 17.8327C12.9826 18.0248 12.8318 18.2027 12.665 18.3665L14.3227 19.4499H12.4702L11.7947 19.016C11.6277 19.11 11.4511 19.1956 11.265 19.2726C10.4815 19.5995 9.58841 19.7629 8.58578 19.7629ZM6.83282 16.4555C7.02843 16.3883 7.25811 16.326 7.52186 16.2686L10.7889 18.3721C10.73 18.4024 10.6696 18.4313 10.6076 18.4588C10.0499 18.7092 9.38921 18.8344 8.62562 18.8344C7.66946 18.8344 6.9457 18.7161 6.45435 18.4796C5.96963 18.2431 5.72727 17.9197 5.72727 17.5093V17.4989C5.72727 17.2902 5.81027 17.0989 5.97627 16.925C6.14227 16.7511 6.42779 16.5946 6.83282 16.4555ZM9.40249 14.807C9.02393 14.9581 8.52302 15.1035 7.89975 15.2432C7.54659 15.006 7.27394 14.8189 7.08182 14.6818C6.77638 14.4593 6.56723 14.2784 6.45435 14.1393C6.34147 13.9932 6.28503 13.8437 6.28503 13.6907V13.6802C6.28503 13.5063 6.36139 13.3498 6.51411 13.2107C6.66682 13.0716 6.90254 12.9638 7.22126 12.8873C7.53998 12.8038 7.93838 12.7621 8.41646 12.7621C8.88789 12.7621 9.28297 12.8038 9.60169 12.8873C9.92041 12.9638 10.1561 13.0751 10.3088 13.2212C10.4616 13.3672 10.5379 13.5307 10.5379 13.7115V13.722C10.5379 13.9306 10.4516 14.1219 10.279 14.2958C10.113 14.4697 9.82081 14.6401 9.40249 14.807Z" fill="#282E33"/>
<path d="M30.0701 12.1465H28.6458V19.4499H30.0701V12.1465Z" fill="#282E33"/>
<path fill-rule="evenodd" clip-rule="evenodd" d="M34.4103 19.7629C33.7861 19.7629 33.2682 19.7038 32.8565 19.5856C32.4515 19.4743 32.1427 19.3073 31.9303 19.0848C31.8107 18.9596 31.7244 18.8239 31.6713 18.6779C31.6182 18.5248 31.5916 18.3579 31.5916 18.1771C31.5916 17.9892 31.6182 17.8188 31.6713 17.6658C31.7311 17.5058 31.8174 17.3667 31.9303 17.2485C32.1095 17.0676 32.3552 16.925 32.6673 16.8207C32.9794 16.7164 33.3578 16.6572 33.8027 16.6433L38.3445 16.4911V16.3095C38.3445 16.2747 38.3411 16.2434 38.3345 16.2156C38.3013 15.9512 38.1851 15.7356 37.9859 15.5687C37.7933 15.4017 37.5045 15.28 37.1194 15.2035C36.7409 15.12 36.2595 15.0783 35.6752 15.0783C34.885 15.0783 34.2908 15.1479 33.8924 15.287C33.494 15.4261 33.235 15.5756 33.1155 15.7356C33.0026 15.8886 32.9362 16.0451 32.9163 16.2051H31.492C31.5119 15.9199 31.6082 15.6313 31.7809 15.3391C31.9535 15.0401 32.3453 14.7618 32.9561 14.5045C33.5736 14.2402 34.49 14.108 35.7051 14.108C36.6413 14.108 37.4082 14.2019 38.0058 14.3897C38.6101 14.5775 39.0549 14.8523 39.3405 15.2139C39.626 15.5687 39.7687 15.9999 39.7687 16.5077V19.4499H38.3843L38.6731 17.864H38.5138C38.4208 18.2605 38.1851 18.6013 37.8066 18.8865C37.4348 19.1717 36.9534 19.3873 36.3624 19.5334C35.7715 19.6864 35.1208 19.7629 34.4103 19.7629ZM37.9859 17.9475C38.1833 17.735 38.2992 17.5225 38.3336 17.31L34.0418 17.4989C33.8359 17.5128 33.6633 17.5406 33.5238 17.5823C33.3844 17.6171 33.2748 17.6762 33.1952 17.7597C33.1686 17.7875 33.1454 17.8223 33.1255 17.864C33.1055 17.8988 33.0889 17.9406 33.0756 17.9893C33.069 18.031 33.0657 18.0727 33.0657 18.1144C33.0657 18.191 33.0756 18.264 33.0956 18.3336C33.1221 18.3962 33.162 18.4553 33.2151 18.5109C33.3147 18.6153 33.4906 18.6987 33.743 18.7613C34.0019 18.817 34.3406 18.8448 34.7589 18.8448C35.6022 18.8448 36.2927 18.7578 36.8305 18.584C37.3684 18.4101 37.7535 18.1979 37.9859 17.9475Z" fill="#282E33"/>
<path d="M42.9341 14.421H41.5198V19.4499H42.9441V17.3528C42.9441 16.9007 43.0404 16.5112 43.2329 16.1843C43.4321 15.8573 43.721 15.6035 44.0994 15.4226C44.4846 15.2418 44.9494 15.1513 45.4938 15.1513C46.3106 15.1513 46.8915 15.2905 47.2368 15.5687C47.5887 15.8469 47.7647 16.2573 47.7647 16.7998V16.9772H49.189V16.7268C49.189 16.1564 49.0761 15.68 48.8503 15.2974C48.6312 14.9079 48.2926 14.6123 47.8344 14.4106C47.3763 14.2089 46.8019 14.108 46.1114 14.108C45.5138 14.108 45.0091 14.181 44.5974 14.3271C44.1858 14.4732 43.8338 14.7097 43.5417 15.0366C43.2562 15.3565 43.0105 15.7878 42.8046 16.3303H42.6453L42.9341 14.421Z" fill="#282E33"/>
<path fill-rule="evenodd" clip-rule="evenodd" d="M54.4025 19.7629C53.712 19.7629 53.0845 19.7003 52.5201 19.5751C51.9557 19.4569 51.471 19.283 51.066 19.0535C50.6609 18.817 50.3488 18.5283 50.1297 18.1875C50.0168 18.0136 49.9305 17.8223 49.8708 17.6136C49.811 17.398 49.7811 17.172 49.7811 16.9355C49.7811 16.7755 49.7944 16.6225 49.821 16.4764C49.8475 16.3303 49.8874 16.1912 49.9405 16.0591C49.9936 15.9199 50.06 15.7878 50.1397 15.6626C50.3588 15.3357 50.6709 15.054 51.0759 14.8175C51.481 14.581 51.959 14.4036 52.5102 14.2854C53.0613 14.1671 53.6589 14.108 54.3029 14.108C55.2857 14.108 56.1123 14.2228 56.783 14.4523C57.4602 14.6749 57.9682 14.9948 58.3068 15.4122C58.6455 15.8295 58.8148 16.3199 58.8148 16.8833V17.238H51.2015C51.2104 17.2902 51.2217 17.3424 51.2353 17.3945C51.2751 17.5476 51.3316 17.6797 51.4046 17.791C51.6304 18.1318 52.0022 18.3927 52.5201 18.5735C53.038 18.7474 53.6622 18.8309 54.3926 18.8239C54.9304 18.8239 55.3919 18.7891 55.777 18.7196C56.1688 18.65 56.4941 18.5492 56.7531 18.417C57.0121 18.2849 57.2212 18.1214 57.3806 17.9266H58.8447C58.6986 18.2953 58.4297 18.6187 58.0379 18.897C57.6462 19.1752 57.1415 19.3873 56.524 19.5334C55.9131 19.6864 55.206 19.7629 54.4025 19.7629ZM51.2751 16.3408C51.2701 16.3545 51.2652 16.3684 51.2604 16.3825H57.4005C57.3274 15.9582 57.0386 15.6278 56.534 15.3913C56.0293 15.1548 55.2857 15.0366 54.3029 15.0366C53.6057 15.0505 53.0015 15.1479 52.4902 15.3287C51.979 15.5026 51.6171 15.753 51.4046 16.0799C51.3581 16.1564 51.315 16.2434 51.2751 16.3408Z" fill="#282E33"/>
<path d="M62.2558 19.4708C62.7804 19.6656 63.441 19.7629 64.2378 19.7629C65.028 19.7629 65.6887 19.6621 66.2199 19.4604C66.7511 19.2656 67.1461 18.9769 67.4051 18.5944C67.6707 18.2118 67.8035 17.7528 67.8035 17.2172V16.9563H66.3892V17.1546C66.3892 17.6832 66.2199 18.0866 65.8812 18.3649C65.5426 18.6361 65.0048 18.7718 64.2677 18.7718C63.5506 18.7718 63.0161 18.6431 62.6642 18.3857C62.3189 18.1214 62.1462 17.7562 62.1462 17.2902V15.3913H67.8035V14.421H62.1462V12.9708L60.722 13.4924V14.421H59.0387V15.3913H60.722V17.3319C60.722 17.8536 60.8481 18.2953 61.1004 18.657C61.3528 19.0117 61.7379 19.283 62.2558 19.4708Z" fill="#282E33"/>
</svg>
